<svg width="310.21242675781247px" height="125.6px" xmlns="http://www.w3.org/2000/svg" viewBox="94.89378662109377 12.200000000000003 310.21242675781247 125.6" style="background: rgb(17, 17, 17);" preserveAspectRatio="xMidYMid"><defs><filter id="editing-hole" x="-100%" y="-100%" width="300%" height="300%"><feFlood flood-color="#000000" result="black"></feFlood><feMorphology operator="dilate" radius="2" in="SourceGraphic" result="erode"></feMorphology><feGaussianBlur in="erode" stdDeviation="4" result="blur"></feGaussianBlur><feOffset in="blur" dx="2" dy="2" result="offset"></feOffset><feComposite operator="atop" in="offset" in2="black" result="merge"></feComposite><feComposite operator="in" in="merge" in2="SourceGraphic" result="inner-shadow"></feComposite></filter></defs><g filter="url(#editing-hole)"><g transform="translate(142.18998289108276, 98.36000061035156)"><path d="M4.48 0L4.48-43.33L4.48-43.33Q4.93-43.33 6.53-43.36L6.53-43.36L6.53-43.36Q8.13-43.39 10.11-43.39L10.11-43.39L10.11-43.39Q12.10-43.39 14.08-43.42L14.08-43.42L14.08-43.42Q16.06-43.46 17.34-43.46L17.34-43.46L17.34-43.46Q25.15-43.46 28.86-39.97L28.86-39.97L28.86-39.97Q32.58-36.48 32.58-30.40L32.58-30.40L32.58-30.40Q32.58-27.46 31.55-24.99L31.55-24.99L31.55-24.99Q30.53-22.53 28.51-20.74L28.51-20.74L28.51-20.74Q26.50-18.94 23.52-17.95L23.52-17.95L23.52-17.95Q20.54-16.96 16.58-16.96L16.58-16.96L12.10-16.96L12.10 0L4.48 0ZM12.10-37.95L12.10-22.66L17.02-22.66L17.02-22.66Q21.06-22.66 22.78-24.77L22.78-24.77L22.78-24.77Q24.51-26.88 24.51-30.14L24.51-30.14L24.51-30.14Q24.51-31.62 24.13-33.02L24.13-33.02L24.13-33.02Q23.74-34.43 22.82-35.55L22.82-35.55L22.82-35.55Q21.89-36.67 20.32-37.34L20.32-37.34L20.32-37.34Q18.75-38.02 16.38-38.02L16.38-38.02L16.38-38.02Q14.98-38.02 13.92-38.02L13.92-38.02L13.92-38.02Q12.86-38.02 12.10-37.95L12.10-37.95ZM45.12 0.26L45.12 0.26Q41.73 0.26 39.94-1.76L39.94-1.76L39.94-1.76Q38.14-3.78 38.14-6.98L38.14-6.98L38.14-31.87L45.44-31.87L45.44-7.62L45.44-7.62Q45.44-6.14 45.89-5.63L45.89-5.63L45.89-5.63Q46.34-5.12 47.23-5.12L47.23-5.12L47.23-5.12Q47.49-5.12 47.78-5.12L47.78-5.12L47.78-5.12Q48.06-5.12 48.32-5.18L48.32-5.18L48.32-5.18Q48.58-5.18 48.90-5.25L48.90-5.25L49.66-0.64L49.66-0.64Q49.22-0.38 48.51-0.19L48.51-0.19L48.51-0.19Q47.94 0 47.07 0.13L47.07 0.13L47.07 0.13Q46.21 0.26 45.12 0.26L45.12 0.26ZM41.92-46.08L41.92-46.08Q43.97-46.08 45.06-44.86L45.06-44.86L45.06-44.86Q46.14-43.65 46.14-41.73L46.14-41.73L46.14-41.73Q46.14-39.81 45.02-38.53L45.02-38.53L45.02-38.53Q43.90-37.25 41.73-37.25L41.73-37.25L41.73-37.25Q39.68-37.25 38.56-38.50L38.56-38.50L38.56-38.50Q37.44-39.74 37.44-41.54L37.44-41.54L37.44-41.54Q37.44-43.52 38.56-44.80L38.56-44.80L38.56-44.80Q39.68-46.08 41.92-46.08L41.92-46.08ZM76.16-28.29L72.06-24.38L72.06-24.38Q71.10-25.47 70.11-26.24L70.11-26.24L70.11-26.24Q69.12-27.01 67.46-27.01L67.46-27.01L67.46-27.01Q66.50-27.01 65.31-26.72L65.31-26.72L65.31-26.72Q64.13-26.43 63.10-25.31L63.10-25.31L63.10-25.31Q62.08-24.19 61.41-22.02L61.41-22.02L61.41-22.02Q60.74-19.84 60.74-16.13L60.74-16.13L60.74-16.13Q60.74-12.35 61.41-10.14L61.41-10.14L61.41-10.14Q62.08-7.94 63.14-6.72L63.14-6.72L63.14-6.72Q64.19-5.50 65.41-5.15L65.41-5.15L65.41-5.15Q66.62-4.80 67.78-4.80L67.78-4.80L67.78-4.80Q68.67-4.80 69.63-4.96L69.63-4.96L69.63-4.96Q70.59-5.12 71.49-5.34L71.49-5.34L71.49-5.34Q72.38-5.57 73.06-5.76L73.06-5.76L73.06-5.76Q73.73-5.95 74.05-6.08L74.05-6.08L75.84-1.47L75.84-1.47Q75.65-1.41 74.98-1.09L74.98-1.09L74.98-1.09Q74.30-0.77 73.15-0.45L73.15-0.45L73.15-0.45Q72-0.13 70.40 0.16L70.40 0.16L70.40 0.16Q68.80 0.45 66.82 0.45L66.82 0.45L66.82 0.45Q63.10 0.45 60.48-0.67L60.48-0.67L60.48-0.67Q57.86-1.79 56.16-3.84L56.16-3.84L56.16-3.84Q54.46-5.89 53.66-8.77L53.66-8.77L53.66-8.77Q52.86-11.65 52.86-15.17L52.86-15.17L52.86-15.17Q52.86-19.39 53.98-22.66L53.98-22.66L53.98-22.66Q55.10-25.92 57.09-28.13L57.09-28.13L57.09-28.13Q59.07-30.34 61.76-31.49L61.76-31.49L61.76-31.49Q64.45-32.64 67.52-32.64L67.52-32.64L67.52-32.64Q70.53-32.64 72.61-31.49L72.61-31.49L72.61-31.49Q74.69-30.34 76.16-28.29L76.16-28.29ZM77.50-26.69L77.50-31.87L83.26-31.87L84.54-39.36L90.56-40.70L90.56-31.87L98.43-31.87L97.54-26.69L90.56-26.69L90.56-7.74L90.56-7.74Q90.56-6.08 91.46-5.60L91.46-5.60L91.46-5.60Q92.35-5.12 93.44-5.12L93.44-5.12L93.44-5.12Q94.34-5.12 95.23-5.25L95.23-5.25L95.23-5.25Q96.13-5.38 96.83-5.57L96.83-5.57L96.83-5.57Q97.66-5.76 98.43-6.02L98.43-6.02L99.65-1.22L99.07-1.02L99.07-1.02Q98.50-0.77 97.38-0.48L97.38-0.48L97.38-0.48Q96.26-0.19 94.75 0.03L94.75 0.03L94.75 0.03Q93.25 0.26 91.46 0.26L91.46 0.26L91.46 0.26Q89.66 0.26 88.16-0.13L88.16-0.13L88.16-0.13Q86.66-0.51 85.57-1.38L85.57-1.38L85.57-1.38Q84.48-2.24 83.87-3.58L83.87-3.58L83.87-3.58Q83.26-4.93 83.26-6.91L83.26-6.91L83.26-26.69L77.50-26.69ZM123.07-16.26L123.07-31.87L130.37-31.87L130.37-15.42L130.37-15.42Q130.37-11.58 130.85-8.99L130.85-8.99L130.85-8.99Q131.33-6.40 131.90-4.80L131.90-4.80L131.90-4.80Q132.61-2.88 133.44-1.79L133.44-1.79L127.74 0.51L127.74 0.51Q126.98-0.19 126.34-1.28L126.34-1.28L126.34-1.28Q125.82-2.18 125.28-3.49L125.28-3.49L125.28-3.49Q124.74-4.80 124.54-6.59L124.54-6.59L124.54-6.59Q122.82-2.82 119.68-1.22L119.68-1.22L119.68-1.22Q116.54 0.38 113.15 0.38L113.15 0.38L113.15 0.38Q108.10 0.38 105.95-2.56L105.95-2.56L105.95-2.56Q103.81-5.50 103.81-10.62L103.81-10.62L103.81-31.87L111.10-31.87L111.10-10.75L111.10-10.75Q111.10-8.06 112.06-6.53L112.06-6.53L112.06-6.53Q113.02-4.99 115.33-4.99L115.33-4.99L115.33-4.99Q116.74-4.99 118.11-5.79L118.11-5.79L118.11-5.79Q119.49-6.59 120.61-8.06L120.61-8.06L120.61-8.06Q121.73-9.54 122.40-11.62L122.40-11.62L122.40-11.62Q123.07-13.70 123.07-16.26L123.07-16.26ZM153.54-25.22L153.54-25.22Q152.38-25.22 151.23-24.64L151.23-24.64L151.23-24.64Q150.08-24.06 149.18-23.07L149.18-23.07L149.18-23.07Q148.29-22.08 147.71-20.67L147.71-20.67L147.71-20.67Q147.14-19.26 147.14-17.54L147.14-17.54L147.14 0L139.84 0L139.84-16.13L139.84-16.13Q139.84-19.97 139.33-22.56L139.33-22.56L139.33-22.56Q138.82-25.15 138.24-26.75L138.24-26.75L138.24-26.75Q137.54-28.61 136.70-29.76L136.70-29.76L142.46-32.06L142.46-32.06Q143.04-31.36 143.68-30.34L143.68-30.34L143.68-30.34Q144.19-29.44 144.70-28.22L144.70-28.22L144.70-28.22Q145.22-27.01 145.54-25.34L145.54-25.34L145.54-25.34Q146.82-29.06 149.25-30.69L149.25-30.69L149.25-30.69Q151.68-32.32 154.75-32.32L154.75-32.32L154.75-32.32Q156.22-32.32 157.50-31.97L157.50-31.97L157.50-31.97Q158.78-31.62 158.72-31.62L158.72-31.62L156.67-24.51L156.67-24.51Q156.74-24.51 155.94-24.86L155.94-24.86L155.94-24.86Q155.14-25.22 153.54-25.22L153.54-25.22ZM159.04-15.17L159.04-15.17Q159.04-19.46 160.22-22.72L160.22-22.72L160.22-22.72Q161.41-25.98 163.49-28.19L163.49-28.19L163.49-28.19Q165.57-30.40 168.38-31.52L168.38-31.52L168.38-31.52Q171.20-32.64 174.46-32.64L174.46-32.64L174.46-32.64Q177.34-32.64 179.36-31.94L179.36-31.94L179.36-31.94Q181.38-31.23 182.66-30.02L182.66-30.02L182.66-30.02Q183.94-28.80 184.54-27.14L184.54-27.14L184.54-27.14Q185.15-25.47 185.15-23.55L185.15-23.55L185.15-23.55Q185.15-21.25 183.87-19.17L183.87-19.17L183.87-19.17Q182.59-17.09 180.19-15.52L180.19-15.52L180.19-15.52Q177.79-13.95 174.40-13.02L174.40-13.02L174.40-13.02Q171.01-12.10 166.78-12.03L166.78-12.03L166.78-12.03Q166.98-10.56 167.39-9.25L167.39-9.25L167.39-9.25Q167.81-7.94 168.61-6.94L168.61-6.94L168.61-6.94Q169.41-5.95 170.69-5.38L170.69-5.38L170.69-5.38Q171.97-4.80 173.89-4.80L173.89-4.80L173.89-4.80Q175.30-4.80 176.90-5.12L176.90-5.12L176.90-5.12Q178.50-5.44 179.84-5.89L179.84-5.89L179.84-5.89Q181.44-6.40 182.98-7.04L182.98-7.04L184.90-2.50L184.90-2.50Q183.23-1.66 181.31-1.02L181.31-1.02L181.31-1.02Q179.65-0.45 177.47 0L177.47 0L177.47 0Q175.30 0.45 172.86 0.45L172.86 0.45L172.86 0.45Q169.15 0.45 166.53-0.67L166.53-0.67L166.53-0.67Q163.90-1.79 162.24-3.84L162.24-3.84L162.24-3.84Q160.58-5.89 159.81-8.77L159.81-8.77L159.81-8.77Q159.04-11.65 159.04-15.17L159.04-15.17ZM173.89-27.65L173.89-27.65Q171.78-27.65 170.40-26.66L170.40-26.66L170.40-26.66Q169.02-25.66 168.19-24.10L168.19-24.10L168.19-24.10Q167.36-22.53 167.01-20.58L167.01-20.58L167.01-20.58Q166.66-18.62 166.59-16.64L166.59-16.64L166.59-16.64Q169.66-16.77 171.81-17.44L171.81-17.44L171.81-17.44Q173.95-18.11 175.30-19.10L175.30-19.10L175.30-19.10Q176.64-20.10 177.25-21.25L177.25-21.25L177.25-21.25Q177.86-22.40 177.86-23.55L177.86-23.55L177.86-23.55Q177.86-25.41 176.77-26.53L176.77-26.53L176.77-26.53Q175.68-27.65 173.89-27.65L173.89-27.65ZM200.64-32.64L200.64-32.64L200.64-32.64Q202.50-32.64 204.29-32.26L204.29-32.26L204.29-32.26Q206.08-31.87 207.49-31.36L207.49-31.36L207.49-31.36Q209.15-30.78 210.56-30.14L210.56-30.14L208.38-25.15L208.38-25.15Q207.10-25.73 205.82-26.18L205.82-26.18L205.82-26.18Q204.74-26.56 203.42-26.91L203.42-26.91L203.42-26.91Q202.11-27.26 200.83-27.26L200.83-27.26L200.83-27.26Q199.36-27.26 198.30-26.56L198.30-26.56L198.30-26.56Q197.25-25.86 197.25-24.45L197.25-24.45L197.25-24.45Q197.25-20.80 202.56-18.75L202.56-18.75L202.56-18.75Q204.54-17.98 206.14-17.12L206.14-17.12L206.14-17.12Q207.74-16.26 208.86-15.10L208.86-15.10L208.86-15.10Q209.98-13.95 210.56-12.45L210.56-12.45L210.56-12.45Q211.14-10.94 211.14-8.90L211.14-8.90L211.14-8.90Q211.14-7.10 210.40-5.38L210.40-5.38L210.40-5.38Q209.66-3.65 208.22-2.30L208.22-2.30L208.22-2.30Q206.78-0.96 204.70-0.16L204.70-0.16L204.70-0.16Q202.62 0.64 200.00 0.64L200.00 0.64L200.00 0.64Q197.89 0.64 195.84 0.16L195.84 0.16L195.84 0.16Q193.79-0.32 192.16-0.90L192.16-0.90L192.16-0.90Q190.53-1.47 189.57-1.98L189.57-1.98L188.61-2.43L190.98-7.81L191.81-7.36L191.81-7.36Q192.64-6.85 193.92-6.27L193.92-6.27L193.92-6.27Q195.20-5.70 196.67-5.22L196.67-5.22L196.67-5.22Q198.14-4.74 199.36-4.74L199.36-4.74L199.36-4.74Q201.60-4.74 202.69-5.63L202.69-5.63L202.69-5.63Q203.78-6.53 203.78-8L203.78-8L203.78-8Q203.78-9.66 202.59-11.04L202.59-11.04L202.59-11.04Q201.41-12.42 199.04-13.31L199.04-13.31L199.04-13.31Q194.11-15.17 191.97-17.54L191.97-17.54L191.97-17.54Q189.82-19.90 189.82-23.68L189.82-23.68L189.82-23.68Q189.82-25.47 190.66-27.10L190.66-27.10L190.66-27.10Q191.49-28.74 192.93-29.98L192.93-29.98L192.93-29.98Q194.37-31.23 196.35-31.94L196.35-31.94L196.35-31.94Q198.34-32.64 200.64-32.64Z" fill="#ffffff"></path></g></g><style>text {
  font-size: 64px;
  font-family: Arial Black;
  dominant-baseline: central;
  text-anchor: middle;
}</style></svg>